<svg width="24" height="24" viewBox="-0.054 0 96 78" fill="none" xmlns="http://www.w3.org/2000/svg">
  <g fill="white">
    <path d="M33.946 49.9031C33.946 47.7475 35.6935 46 37.8491 46C40.0047 46 41.7522 47.7475 41.7522 49.9031V57.0969C41.7522 59.2525 40.0047 61 37.8491 61C35.6935 61 33.946 59.2525 33.946 57.0969V49.9031Z"/>
    <path d="M57.8491 46C55.6935 46 53.946 47.7475 53.946 49.9031V57.0969C53.946 59.2525 55.6935 61 57.8491 61C60.0047 61 61.7522 59.2525 61.7522 57.0969V49.9031C61.7522 47.7475 60.0047 46 57.8491 46Z"/>
    <path fill-rule="evenodd" clip-rule="evenodd" d="M95.946 46.2V56.958C95.943 58.3471 95.2548 59.7013 94.134 60.522C80.903 70.2083 64.5771 78 47.946 78C29.5464 78 11.1247 67.3975 1.758 60.522C0.63724 59.7013 -0.0512904 58.3471 -0.054 56.958V46.2C-0.054 44.784 0.396 43.416 1.23 42.276L4.152 38.322C5.71694 36.2006 8.04424 35.64 10.524 35.64C11.46 24.96 13.674 17.34 18.966 11.76C29.046 1.08 42.426 0 47.946 0C53.466 0 66.846 1.08 76.926 11.76C82.212 17.34 84.432 24.96 85.368 35.64C87.8527 35.64 90.1698 36.191 91.734 38.322L94.656 42.282C95.496 43.422 95.946 44.784 95.946 46.2ZM77.634 41.31C77.5058 38.8597 75.5161 37.8982 73.446 37.218C71.2633 38.5874 68.5982 39.126 66.048 39.126C63.336 39.126 58.278 38.478 54.072 34.278C53.01 33.222 52.284 31.566 51.792 29.73C50.516 29.6002 49.2345 29.5322 47.952 29.526C46.812 29.526 45.498 29.592 44.1 29.73C43.608 31.566 42.882 33.222 41.82 34.278C37.62 38.478 32.556 39.126 29.844 39.126C27.2932 39.126 24.6212 38.5934 22.44 37.218C20.3766 37.896 18.3952 38.8737 18.264 41.31C18.0443 45.9152 18.0252 50.516 18.0061 55.119C17.9961 57.4292 17.987 59.7399 17.952 62.052C17.961 63.394 18.7702 64.6407 19.992 65.196C29.922 69.72 39.312 72 47.952 72C56.58 72 65.97 69.72 75.894 65.196C77.1158 64.6407 77.9247 63.394 77.934 62.052C78.053 55.1451 77.9572 48.2101 77.628 41.31H77.634ZM20.106 31.68C21.726 33.3 24.786 34.38 28.086 34.38C30.606 34.38 35.406 33.84 39.366 29.82C41.106 28.14 42.186 23.94 42.066 19.68C41.946 16.26 40.986 13.44 39.546 12.24C37.986 10.86 34.446 10.26 30.486 10.62C26.286 11.04 22.746 12.42 20.946 14.34C17.046 18.6 17.886 29.4 20.106 31.68ZM44.586 21.18C44.706 21.84 44.766 22.56 44.826 23.34C44.826 23.88 44.826 24.42 44.766 25.02C45.966 24.9 46.986 24.9 47.946 24.9C48.9059 24.9 49.926 24.9 51.126 25.02C51.066 24.42 51.066 23.8801 51.066 23.3401C51.126 22.5601 51.186 21.8399 51.306 21.1799C50.046 21.06 48.906 21 47.946 21C46.986 21 45.846 21.06 44.586 21.18ZM53.826 19.68C53.706 23.94 54.786 28.14 56.526 29.82C60.486 33.84 65.286 34.38 67.806 34.38C71.106 34.38 74.166 33.3 75.786 31.68C78.006 29.4 78.846 18.6 74.946 14.34C73.146 12.42 69.606 11.04 65.406 10.62C61.446 10.26 57.906 10.86 56.346 12.24C54.906 13.44 53.946 16.26 53.826 19.68Z"/>
  </g>
</svg>
